# xmcd CD database file
#
# Track frame offsets:
#	182
#	14437
#	32365
#	47517
#	60502
#	75960
#	96445
#	108555
#	124527
#	140790
#	154292
#	172907
#	193970
#	208715
#
# Disc length: 3076 seconds
#
# Revision: 1
# Processed by: cddbd v1.5PL3 Copyright (c) Steve Scherf et al.
# Submitted via: CDex 1.51
#
DISCID=b80c020e
DTITLE=James Taylor - Steamroller
DYEAR=1900
DGENRE=Blues
TTITLE0=Something in the way she moves
TTITLE1=Carolina on my mind
TTITLE2=Fire and rain
TTITLE3=Sweet baby james
TTITLE4=Country road
TTITLE5=You've got a friend
TTITLE6=Don't let me be lonely tonight
TTITLE7=Walking man
TTITLE8=Hoe sweet it is
TTITLE9=Mexico
TTITLE10=Shower the people
TTITLE11=The letter in the mail
TTITLE12=Everyday
TTITLE13=Steamroller
EXTD=
EXTT0=
EXTT1=
EXTT2=
EXTT3=
EXTT4=
EXTT5=
EXTT6=
EXTT7=
EXTT8=
EXTT9=
EXTT10=
EXTT11=
EXTT12=
EXTT13=
PLAYORDER=
